<svg width="163" height="28" viewBox="0 0 163 28" fill="none" xmlns="http://www.w3.org/2000/svg">
<path d="M5.50822 7.37805V13.6681H16.5242V18.0881H5.50822V26.7581H0.000222802V2.95806H17.9862V7.37805H5.50822ZM39.3042 8.46606V26.7581H34.2722V24.5821C33.5696 25.3754 32.7309 25.9874 31.7562 26.4181C30.7816 26.8261 29.7276 27.0301 28.5942 27.0301C26.1916 27.0301 24.2876 26.3387 22.8822 24.9561C21.4769 23.5734 20.7742 21.5221 20.7742 18.8021V8.46606H26.0782V18.0201C26.0782 20.9667 27.3136 22.4401 29.7842 22.4401C31.0536 22.4401 32.0736 22.0321 32.8442 21.2161C33.6149 20.3774 34.0002 19.1421 34.0002 17.5101V8.46606H39.3042ZM49.284 10.8801C49.9187 9.99606 50.7687 9.32739 51.834 8.87406C52.922 8.42072 54.1687 8.19406 55.574 8.19406V13.0901C54.9847 13.0447 54.588 13.0221 54.384 13.0221C52.8654 13.0221 51.6754 13.4527 50.814 14.3141C49.9527 15.1527 49.522 16.4221 49.522 18.1221V26.7581H44.218V8.46606H49.284V10.8801ZM69.8458 8.19406C72.1125 8.19406 73.9371 8.87406 75.3198 10.2341C76.7251 11.5941 77.4278 13.6114 77.4278 16.2861V26.7581H72.1238V17.1021C72.1238 15.6514 71.8065 14.5747 71.1718 13.8721C70.5371 13.1467 69.6191 12.7841 68.4178 12.7841C67.0805 12.7841 66.0151 13.2034 65.2218 14.0421C64.4285 14.8581 64.0318 16.0821 64.0318 17.7141V26.7581H58.7278V8.46606H63.7938V10.6081C64.4965 9.83739 65.3691 9.24806 66.4118 8.84006C67.4545 8.40939 68.5991 8.19406 69.8458 8.19406ZM82.2356 8.46606H87.5396V26.7581H82.2356V8.46606ZM84.8876 5.91606C83.9129 5.91606 83.1196 5.63272 82.5076 5.06606C81.8956 4.49939 81.5896 3.79672 81.5896 2.95806C81.5896 2.11939 81.8956 1.41672 82.5076 0.850056C83.1196 0.283388 83.9129 5.45979e-05 84.8876 5.45979e-05C85.8623 5.45979e-05 86.6556 0.272055 87.2676 0.816056C87.8796 1.36006 88.1856 2.04006 88.1856 2.85606C88.1856 3.74006 87.8796 4.47672 87.2676 5.06606C86.6556 5.63272 85.8623 5.91606 84.8876 5.91606ZM104.26 25.8741C103.739 26.2594 103.093 26.5541 102.322 26.7581C101.574 26.9394 100.781 27.0301 99.9422 27.0301C97.7662 27.0301 96.0775 26.4747 94.8762 25.3641C93.6975 24.2534 93.1082 22.6214 93.1082 20.4681V12.9541H90.2862V8.87406H93.1082V4.42006H98.4122V8.87406H102.968V12.9541H98.4122V20.4001C98.4122 21.1707 98.6048 21.7714 98.9902 22.2021C99.3982 22.6101 99.9648 22.8141 100.69 22.8141C101.529 22.8141 102.243 22.5874 102.832 22.1341L104.26 25.8741ZM125.666 8.46606V26.7581H120.634V24.5821C119.931 25.3754 119.092 25.9874 118.118 26.4181C117.143 26.8261 116.089 27.0301 114.956 27.0301C112.553 27.0301 110.649 26.3387 109.244 24.9561C107.838 23.5734 107.136 21.5221 107.136 18.8021V8.46606H112.44V18.0201C112.44 20.9667 113.675 22.4401 116.146 22.4401C117.415 22.4401 118.435 22.0321 119.206 21.2161C119.976 20.3774 120.362 19.1421 120.362 17.5101V8.46606H125.666ZM135.645 10.8801C136.28 9.99606 137.13 9.32739 138.195 8.87406C139.283 8.42072 140.53 8.19406 141.935 8.19406V13.0901C141.346 13.0447 140.949 13.0221 140.745 13.0221C139.227 13.0221 138.037 13.4527 137.175 14.3141C136.314 15.1527 135.883 16.4221 135.883 18.1221V26.7581H130.579V8.46606H135.645V10.8801ZM162.841 17.6801C162.841 17.7481 162.807 18.2241 162.739 19.1081H148.901C149.15 20.2414 149.74 21.1367 150.669 21.7941C151.598 22.4514 152.754 22.7801 154.137 22.7801C155.089 22.7801 155.928 22.6441 156.653 22.3721C157.401 22.0774 158.092 21.6241 158.727 21.0121L161.549 24.0721C159.826 26.0441 157.31 27.0301 154.001 27.0301C151.938 27.0301 150.114 26.6334 148.527 25.8401C146.94 25.0241 145.716 23.9021 144.855 22.4741C143.994 21.0461 143.563 19.4254 143.563 17.6121C143.563 15.8214 143.982 14.2121 144.821 12.7841C145.682 11.3334 146.85 10.2114 148.323 9.41805C149.819 8.60206 151.485 8.19406 153.321 8.19406C155.112 8.19406 156.732 8.57939 158.183 9.35006C159.634 10.1207 160.767 11.2314 161.583 12.6821C162.422 14.1101 162.841 15.7761 162.841 17.6801ZM153.355 12.2061C152.154 12.2061 151.145 12.5461 150.329 13.2261C149.513 13.9061 149.014 14.8354 148.833 16.0141H157.843C157.662 14.8581 157.163 13.9401 156.347 13.2601C155.531 12.5574 154.534 12.2061 153.355 12.2061Z" fill="#054C73"/>
</svg>
